# xmcd
#
# Track frame offsets:
#	150
#	18319
#	50682
#	79230
#	105351
#	143144
#	165709
#	197420
#	226308
#	258386
#
# Disc length: 3839 seconds
#
# Revision: 0
# Processed by: cddbd v1.5.2PL0 Copyright (c) Steve Scherf et al.
# Submitted via: EasyCDDAExtractor 11.5.3.1
#
DISCID=7a0efd0a
DTITLE=Various Artist - Essential Big Beat Disc 1
DYEAR=1999
DGENRE=
TTITLE0=Fatboy Slim - The Rockafeller Skank
TTITLE1=Lo Fidelity Allstars - Many Tentacles Pimping on the Keys
TTITLE2=Tiny Lion - Dread
TTITLE3=Subzone - Passion
TTITLE4=Outcast - Back Roll (Herbal mix)
TTITLE5=Lightning M.L.E. and Robin E. - Light Em Up, Scratch Em Up
TTITLE6=Meat Katie - Sanctified
TTITLE7=Amp - Millenium (Breaks mix)
TTITLE8=Future - Shake Up (King Kong mix)
TTITLE9=DJ Stix - Mind Party
EXTD=
EXTT0=
EXTT1=
EXTT2=
EXTT3=
EXTT4=
EXTT5=
EXTT6=
EXTT7=
EXTT8=
EXTT9=
PLAYORDER=
